<svg width="29" height="29" viewBox="0 0 29 29" fill="none" xmlns="http://www.w3.org/2000/svg">
<path d="M0.581801 29H28.4178C28.7392 29 29 28.7124 29 28.3572V10.5923C29 8.77444 27.6606 7.29596 26.0145 7.29596H23.5612C22.9181 6.43502 22.2575 5.6435 21.7001 5.02811C19.4339 2.52541 16.3898 0 14.6987 0C14.1973 0 13.8961 0.216843 13.7315 0.398546C13.5514 0.596962 13.4474 0.851945 13.402 1.14893L11.185 7.29553H2.98508C1.33904 7.29553 4.32615e-07 8.77444 4.32615e-07 10.5919V28.3568C-0.000387693 28.712 0.260433 29 0.581801 29ZM6.33926 19.8253L8.32026 22.0126L7.72992 22.6635C7.4656 22.9554 7.11396 23.1161 6.7402 23.1161C6.36643 23.1161 6.0144 22.9554 5.7497 22.6627C5.485 22.3709 5.33945 21.983 5.33945 21.5699C5.33945 21.1568 5.485 20.7685 5.7497 20.4767L6.33926 19.8253ZM6.10406 17.7473L7.74156 15.9388L9.79087 18.2015L11.7362 20.3494L11.7373 20.3503L11.8406 20.4643L10.2023 22.2723L6.10406 17.7473ZM13.8635 3.34479C13.9772 3.60577 14.1033 3.87575 14.257 4.16459C15.0733 5.70092 16.3754 7.48838 17.924 9.19784C18.3797 9.70095 18.8672 10.2036 19.3683 10.6879L19.3702 10.6913C19.3721 10.6935 19.3749 10.6939 19.3768 10.696C20.7085 11.9817 22.1368 13.1246 23.3423 13.7417L12.2772 19.1293L9.33987 15.8861L13.8635 3.34479ZM19.6764 9.27112C19.371 8.96171 19.0609 8.63559 18.7469 8.2889C18.4294 7.93835 18.1398 7.60023 17.8635 7.26896C18.3673 7.05726 18.977 7.16697 19.3698 7.60066C19.6337 7.89207 19.7793 8.27904 19.7793 8.6913C19.7793 8.89314 19.7432 9.08899 19.6764 9.27112ZM12.0144 22.0897L17.2681 25.2018L16.417 26.5114L11.8204 22.304L12.0144 22.0897ZM26.0141 8.58116C27.0182 8.58116 27.8352 9.48325 27.8352 10.5919V27.7139H17.0686L18.6009 25.3561C18.6988 25.2057 18.7329 25.0163 18.6949 24.8363C18.6568 24.6563 18.5509 24.5024 18.403 24.415L12.8749 21.1401L13.0752 20.9189C13.1843 20.7981 13.2456 20.6348 13.2456 20.4643C13.2456 20.3374 13.2114 20.2144 13.1489 20.1099L25.4215 14.1334C25.6353 14.0532 25.7929 13.9363 25.8927 13.8261C26.7989 12.825 25.8344 10.6532 24.4663 8.58116H26.0141ZM20.8765 5.93662C21.6144 6.75171 22.2319 7.5128 22.7547 8.2169C22.7946 8.3069 22.8525 8.38489 22.9239 8.44574C24.7197 10.921 25.2367 12.5889 25.0753 12.9047C25.0559 12.9116 25.0365 12.9159 25.0178 12.9253L24.9969 12.9352C24.9775 12.9377 24.9542 12.9395 24.9251 12.9395C24.1911 12.9395 22.5447 11.9688 20.5773 10.1445C20.8144 9.70952 20.9437 9.21198 20.9437 8.6913C20.9437 7.93578 20.677 7.22568 20.193 6.69129C19.7098 6.15689 19.0667 5.86291 18.382 5.86291C17.9089 5.86291 17.4567 6.00647 17.0624 6.27003C15.2266 3.86247 14.547 2.13458 14.5225 1.51705L14.5769 1.36706C14.585 1.34349 14.5893 1.31949 14.5955 1.29549C14.6188 1.29035 14.6506 1.28563 14.6987 1.28563C15.6512 1.2852 18.1406 2.91581 20.8765 5.93662ZM1.16399 10.5923C1.16399 9.48368 1.98061 8.58159 2.98469 8.58159H10.7212L8.44329 14.8962L8.15298 14.5756C7.93446 14.3339 7.5475 14.3348 7.32976 14.5756L4.86904 17.293C4.6416 17.5442 4.6416 17.9513 4.86904 18.202L5.51605 18.9164L4.92648 19.5669C4.4421 20.1017 4.17507 20.8131 4.17507 21.5695C4.17507 22.3263 4.4421 23.0372 4.9261 23.5712C5.41048 24.1065 6.05438 24.4013 6.73981 24.4013C7.42485 24.4013 8.06914 24.1069 8.55313 23.5725L9.14347 22.9211L9.79048 23.6355C9.9042 23.7611 10.0532 23.8236 10.2023 23.8236C10.3513 23.8236 10.5004 23.7611 10.6141 23.6355L10.9941 23.2159L15.9077 27.7135H1.16399V10.5923Z" fill="white"/>
</svg>
