<svg width="31" height="31" viewBox="0 0 31 31" fill="none" xmlns="http://www.w3.org/2000/svg">
<path fill-rule="evenodd" clip-rule="evenodd" d="M15.9452 30H4.09433C2.38809 30 1 28.6853 1 27.0695V3.93053C1 2.31467 2.38815 1 4.09433 1H15.9452C17.6515 1 19.0396 2.31467 19.0396 3.93053V4.77247C19.3092 4.78074 19.5781 4.79798 19.8447 4.82424C20.5965 4.89827 21.1704 5.44768 21.2404 6.16042L21.3876 7.66064C21.4123 7.91132 21.573 8.11762 21.8176 8.21252C22.0624 8.30742 22.3297 8.26716 22.5328 8.10483L23.7483 7.1338C24.3261 6.67228 25.142 6.66185 25.7325 7.1084C26.3708 7.59097 26.9554 8.14008 27.4701 8.74048C27.9465 9.29625 27.9421 10.0691 27.4594 10.62L26.4437 11.779C26.2739 11.9728 26.2336 12.2264 26.3357 12.4573C26.4378 12.6882 26.657 12.8387 26.9218 12.86L28.5076 12.9874C29.2611 13.048 29.8459 13.5875 29.9297 14.2994C29.9763 14.6956 29.9999 15.0994 29.9999 15.4999C29.9999 15.8716 29.9794 16.247 29.939 16.6159C29.8609 17.3279 29.2807 17.8714 28.5282 17.9377L26.944 18.0772C26.6793 18.1005 26.4615 18.2527 26.3613 18.4844C26.2611 18.7161 26.3036 18.9693 26.475 19.1617L27.5003 20.3128C27.9876 20.8599 27.9986 21.6326 27.5271 22.192C27.0176 22.7965 26.4378 23.35 25.8038 23.8376C25.2171 24.2889 24.4009 24.2847 23.8193 23.8275L22.5954 22.8655C22.3908 22.7047 22.1232 22.6667 21.8792 22.7633C21.6355 22.8601 21.4764 23.0675 21.454 23.3184L21.3194 24.8202C21.2555 25.5339 20.6859 26.0877 19.9341 26.167C19.6387 26.1981 19.3391 26.2185 19.0396 26.2277V27.0695C19.0396 28.6853 17.6515 30 15.9452 30ZM18.2927 26.2277V27.0695C18.2927 28.2954 17.2397 29.2927 15.9452 29.2927H4.09433C2.79991 29.2927 1.74685 28.2954 1.74685 27.0695V3.93053C1.74685 2.70463 2.79991 1.70732 4.09433 1.70732H15.9452C17.2397 1.70732 18.2927 2.70463 18.2927 3.93053V4.77245C17.993 4.78162 17.6943 4.80183 17.3987 4.83302C16.6471 4.9123 16.0774 5.46613 16.0135 6.17981L15.8789 7.68162C15.8565 7.93248 15.6974 8.13996 15.4536 8.23675C15.2098 8.33347 14.9422 8.29534 14.7375 8.13448L13.5137 7.17253C12.932 6.71537 12.1159 6.71118 11.5291 7.16245C10.8949 7.65003 10.3152 8.20368 9.80577 8.80802C9.33426 9.36733 9.34527 10.1401 9.8326 10.6872L10.8579 11.8383C11.0293 12.0307 11.0718 12.284 10.9716 12.5157C10.8714 12.7473 10.6536 12.8996 10.3889 12.9228L8.8048 13.0623C8.05223 13.1286 7.47211 13.6721 7.394 14.3841C7.35355 14.7528 7.33301 15.1283 7.33301 15.5001C7.33301 15.9006 7.3566 16.3046 7.40321 16.7006C7.48692 17.4125 8.07171 17.952 8.82534 18.0126L10.411 18.14C10.6759 18.1612 10.895 18.3118 10.9971 18.5427C11.0993 18.7736 11.0589 19.0272 10.8891 19.221L9.87349 20.38C9.39071 20.9309 9.38629 21.7038 9.86278 22.2596C10.3775 22.86 10.9621 23.4091 11.6003 23.8916C12.1909 24.3382 13.0068 24.3278 13.5845 23.8662L14.8 22.8952C15.0032 22.7328 15.2705 22.6926 15.5152 22.7875C15.7599 22.8824 15.9206 23.0887 15.9452 23.3394L16.0925 24.8396C16.1624 25.5523 16.7363 26.1017 17.4881 26.1758C17.7542 26.202 18.0236 26.2193 18.2927 26.2277ZM11.5277 27.8141H8.94862C8.74243 27.8141 8.5752 27.6557 8.5752 27.4604C8.5752 27.2651 8.74243 27.1068 8.94862 27.1068H11.5276C11.7338 27.1068 11.9011 27.2651 11.9011 27.4604C11.9011 27.6557 11.7339 27.8141 11.5277 27.8141ZM15.7983 22.1329C15.6209 22.0641 15.4352 22.0305 15.2507 22.0305C14.9157 22.0305 14.5852 22.1415 14.3184 22.3545L13.1029 23.3255C12.8011 23.5667 12.3748 23.5721 12.0662 23.3388C11.4698 22.8879 10.9235 22.3748 10.4425 21.8136C10.1936 21.5233 10.1958 21.1195 10.4481 20.8317L11.4638 19.6726C11.8093 19.2783 11.8944 18.7406 11.6859 18.2693C11.4775 17.7981 11.0131 17.4784 10.4741 17.4351L8.88839 17.3077C8.49467 17.2761 8.18915 16.9942 8.1454 16.6223C8.10189 16.2521 8.0798 15.8745 8.0798 15.5C8.0798 15.1527 8.09903 14.8018 8.13681 14.4572C8.17763 14.0851 8.48073 13.8012 8.87395 13.7666L10.458 13.6272C10.9966 13.5797 11.4583 13.2565 11.6628 12.7837C11.8672 12.3108 11.7775 11.7739 11.4287 11.3822L10.4034 10.2311C10.1488 9.94533 10.143 9.54151 10.3894 9.24927C10.8654 8.68454 11.4073 8.16714 11.9998 7.71156C12.3064 7.47567 12.7328 7.47786 13.0367 7.71681L14.2606 8.67876C14.6769 9.00584 15.2445 9.08641 15.7422 8.88907C16.2398 8.69167 16.5774 8.2519 16.6231 7.74145L16.7577 6.23964C16.7911 5.8667 17.0886 5.57735 17.4814 5.53598C18.2351 5.45634 19.0113 5.45334 19.7675 5.52772C20.1603 5.56645 20.4602 5.8535 20.4967 6.2259L20.644 7.72612C20.6941 8.23622 21.0353 8.6734 21.5346 8.86703C22.0339 9.06071 22.6008 8.97572 23.0143 8.6454L24.2298 7.67437C24.5317 7.43324 24.958 7.42775 25.2665 7.66111C25.863 8.11202 26.4093 8.62512 26.8902 9.18626C27.1391 9.47661 27.1369 9.88038 26.8846 10.1682L25.8689 11.3273C25.5235 11.7216 25.4384 12.2593 25.6469 12.7306C25.8553 13.2018 26.3197 13.5214 26.8586 13.5647L28.4443 13.6922C28.8381 13.7238 29.1436 14.0057 29.1874 14.3776C29.2309 14.7478 29.253 15.1254 29.253 15.4999C29.253 15.8472 29.2338 16.198 29.196 16.5427C29.1552 16.9147 28.852 17.1987 28.4589 17.2333L26.8748 17.3727C26.3362 17.4202 25.8745 17.7434 25.6701 18.2163C25.4656 18.6891 25.5553 19.2261 25.9041 19.6177L26.9294 20.7688C27.184 21.0546 27.1897 21.4584 26.9434 21.7506C26.4673 22.3155 25.9255 22.8328 25.333 23.2883C25.0264 23.5242 24.6 23.522 24.2961 23.2831L23.0722 22.3211C22.656 21.9939 22.0883 21.9134 21.5906 22.1108C21.093 22.3082 20.7555 22.748 20.7097 23.2585L20.5752 24.7603C20.5418 25.1332 20.2442 25.4225 19.8514 25.4639C19.0977 25.5434 18.3214 25.5466 17.5653 25.4722C17.1725 25.4334 16.8727 25.1464 16.8361 24.774L16.6889 23.2738C16.6388 22.7637 16.2975 22.3265 15.7983 22.1329ZM18.6654 20.5131C15.7467 20.5131 13.3721 18.2642 13.3721 15.5C13.3721 12.7357 15.7467 10.4869 18.6654 10.4869C21.5841 10.4869 23.9588 12.7357 23.9588 15.5C23.9588 18.2642 21.5841 20.5131 18.6654 20.5131ZM18.6654 11.1942C16.1585 11.1942 14.1189 13.1258 14.1189 15.5C14.1189 17.8742 16.1585 19.8058 18.6654 19.8058C21.1724 19.8058 23.2119 17.8742 23.2119 15.5C23.2119 13.1258 21.1724 11.1942 18.6654 11.1942ZM17.7128 18.8691C17.7452 18.8773 17.7777 18.8812 17.8097 18.8812C17.9746 18.8812 18.1255 18.777 18.1701 18.619L19.8833 12.5639C19.9367 12.3753 19.8184 12.1813 19.6192 12.1308C19.4202 12.0806 19.2153 12.1922 19.1619 12.3809L17.4487 18.4359C17.3953 18.6246 17.5136 18.8185 17.7128 18.8691ZM16.4279 16.959C16.5009 17.0281 16.5964 17.0626 16.692 17.0626C16.7876 17.0626 16.8831 17.0281 16.9561 16.959C17.1019 16.8209 17.1019 16.597 16.9561 16.4589L15.9436 15.5L16.956 14.541C17.1018 14.403 17.1018 14.179 16.956 14.0409C16.8102 13.9028 16.5737 13.9028 16.4279 14.0409L15.1514 15.2499C15.0055 15.388 15.0055 15.6119 15.1514 15.75L16.4279 16.959ZM20.3761 16.959C20.449 17.0281 20.5446 17.0626 20.6402 17.0626C20.7358 17.0626 20.8313 17.0281 20.9042 16.959L22.1807 15.75C22.3265 15.6119 22.3265 15.388 22.1807 15.2499L20.9042 14.0409C20.7583 13.9028 20.5219 13.9027 20.3761 14.0409C20.2303 14.179 20.2303 14.4029 20.3761 14.541L21.3886 15.5L20.3761 16.4589C20.2303 16.5969 20.2303 16.8209 20.3761 16.959Z" fill="white"/>
<path d="M19.0396 4.77247H18.7896V5.01491L19.0319 5.02235L19.0396 4.77247ZM19.8447 4.82424L19.8202 5.07303L19.8202 5.07303L19.8447 4.82424ZM21.2404 6.16042L20.9916 6.18484V6.18484L21.2404 6.16042ZM21.3876 7.66064L21.1388 7.68506L21.1388 7.6851L21.3876 7.66064ZM21.8176 8.21252L21.7272 8.4456L21.7272 8.44561L21.8176 8.21252ZM22.5328 8.10483L22.3768 7.90951L22.3767 7.90953L22.5328 8.10483ZM23.7483 7.1338L23.5923 6.93848L23.5923 6.93848L23.7483 7.1338ZM25.7325 7.1084L25.5817 7.3078L25.5817 7.30782L25.7325 7.1084ZM27.4701 8.74048L27.2803 8.90319L27.2803 8.9032L27.4701 8.74048ZM27.4594 10.62L27.2713 10.4552L27.2713 10.4552L27.4594 10.62ZM26.4437 11.779L26.6317 11.9438L26.6317 11.9438L26.4437 11.779ZM26.3357 12.4573L26.1071 12.5584L26.1071 12.5584L26.3357 12.4573ZM26.9218 12.86L26.9418 12.6108H26.9418L26.9218 12.86ZM28.5076 12.9874L28.5276 12.7382L28.5276 12.7382L28.5076 12.9874ZM29.9297 14.2994L30.178 14.2702V14.2702L29.9297 14.2994ZM29.939 16.6159L30.1875 16.6432L30.1875 16.6431L29.939 16.6159ZM28.5282 17.9377L28.5501 18.1868L28.5501 18.1868L28.5282 17.9377ZM26.944 18.0772L26.9659 18.3262L26.9659 18.3262L26.944 18.0772ZM26.3613 18.4844L26.1318 18.3851L26.1318 18.3851L26.3613 18.4844ZM26.475 19.1617L26.6617 18.9954L26.6617 18.9954L26.475 19.1617ZM27.5003 20.3128L27.3136 20.4791L27.3136 20.4791L27.5003 20.3128ZM27.5271 22.192L27.7183 22.3531L27.7183 22.3531L27.5271 22.192ZM25.8038 23.8376L25.6514 23.6394L25.6514 23.6394L25.8038 23.8376ZM23.8193 23.8275L23.9738 23.6309L23.9737 23.6309L23.8193 23.8275ZM22.5954 22.8655L22.4408 23.0621L22.4409 23.0621L22.5954 22.8655ZM21.8792 22.7633L21.7872 22.5308L21.787 22.5309L21.8792 22.7633ZM21.454 23.3184L21.703 23.3407V23.3407L21.454 23.3184ZM21.3194 24.8202L21.0704 24.7979V24.7979L21.3194 24.8202ZM19.9341 26.167L19.9603 26.4156L19.9604 26.4156L19.9341 26.167ZM19.0396 26.2277L19.0319 25.9778L18.7896 25.9853V26.2277H19.0396ZM19.0396 27.0695H18.7896V27.0695L19.0396 27.0695ZM18.2927 26.2277H18.5427V25.9853L18.3005 25.9778L18.2927 26.2277ZM18.2927 4.77245L18.3004 5.02233L18.5427 5.01492V4.77245H18.2927ZM17.3987 4.83302L17.4249 5.08164L17.4249 5.08164L17.3987 4.83302ZM16.0135 6.17981L16.2625 6.20212L16.2625 6.20211L16.0135 6.17981ZM15.8789 7.68162L15.6299 7.65931L15.6299 7.65932L15.8789 7.68162ZM15.4536 8.23675L15.5458 8.46913L15.5459 8.46911L15.4536 8.23675ZM14.7375 8.13448L14.892 7.93793L14.892 7.93793L14.7375 8.13448ZM13.5137 7.17253L13.6682 6.97598L13.6682 6.97597L13.5137 7.17253ZM11.5291 7.16245L11.6815 7.36064L11.6815 7.36063L11.5291 7.16245ZM9.80577 8.80802L9.99691 8.96916L9.99692 8.96915L9.80577 8.80802ZM9.8326 10.6872L10.0193 10.521L9.8326 10.6872ZM10.8579 11.8383L10.6712 12.0046L10.6712 12.0046L10.8579 11.8383ZM10.3889 12.9228L10.367 12.6738L10.367 12.6738L10.3889 12.9228ZM8.8048 13.0623L8.78288 12.8133L8.78286 12.8133L8.8048 13.0623ZM7.394 14.3841L7.64251 14.4114V14.4114L7.394 14.3841ZM7.40321 16.7006L7.6515 16.6714L7.6515 16.6714L7.40321 16.7006ZM8.82534 18.0126L8.80531 18.2618L8.80532 18.2618L8.82534 18.0126ZM10.411 18.14L10.391 18.3891L10.411 18.14ZM10.9971 18.5427L11.2258 18.4416L11.2258 18.4416L10.9971 18.5427ZM10.8891 19.221L10.7011 19.0562L10.7011 19.0562L10.8891 19.221ZM9.87349 20.38L10.0615 20.5448L10.0615 20.5448L9.87349 20.38ZM9.86278 22.2596L9.67298 22.4223L9.67299 22.4223L9.86278 22.2596ZM11.6003 23.8916L11.7511 23.6922L11.7511 23.6922L11.6003 23.8916ZM13.5845 23.8662L13.4285 23.6709L13.4285 23.6709L13.5845 23.8662ZM14.8 22.8952L14.9561 23.0905L14.9561 23.0905L14.8 22.8952ZM15.5152 22.7875L15.6056 22.5544L15.6056 22.5544L15.5152 22.7875ZM15.9452 23.3394L16.194 23.315L16.194 23.3149L15.9452 23.3394ZM16.0925 24.8396L16.3413 24.8152V24.8152L16.0925 24.8396ZM17.4881 26.1758L17.4636 26.4246L17.4637 26.4246L17.4881 26.1758ZM15.7983 22.1329L15.7078 22.3659L15.7079 22.366L15.7983 22.1329ZM14.3184 22.3545L14.1624 22.1591L14.1623 22.1592L14.3184 22.3545ZM13.1029 23.3255L12.9468 23.1302L12.9468 23.1302L13.1029 23.3255ZM12.0662 23.3388L12.217 23.1394L12.2169 23.1394L12.0662 23.3388ZM10.4425 21.8136L10.6323 21.6509L10.6323 21.6509L10.4425 21.8136ZM10.4481 20.8317L10.6361 20.9965L10.6361 20.9965L10.4481 20.8317ZM11.4638 19.6726L11.6518 19.8374L11.6518 19.8373L11.4638 19.6726ZM11.6859 18.2693L11.4573 18.3705L11.4573 18.3705L11.6859 18.2693ZM10.4741 17.4351L10.4941 17.1859H10.4941L10.4741 17.4351ZM8.88839 17.3077L8.86835 17.5569L8.86837 17.5569L8.88839 17.3077ZM8.1454 16.6223L7.8971 16.6515L7.89711 16.6515L8.1454 16.6223ZM8.13681 14.4572L7.8883 14.4299L7.8883 14.4299L8.13681 14.4572ZM8.87395 13.7666L8.89586 14.0156L8.89587 14.0156L8.87395 13.7666ZM10.458 13.6272L10.4799 13.8762L10.48 13.8762L10.458 13.6272ZM11.6628 12.7837L11.8922 12.8829L11.8922 12.8829L11.6628 12.7837ZM11.4287 11.3822L11.6154 11.2159L11.6154 11.2159L11.4287 11.3822ZM10.4034 10.2311L10.5901 10.0648L10.5901 10.0648L10.4034 10.2311ZM10.3894 9.24927L10.5806 9.41042L10.5806 9.41039L10.3894 9.24927ZM11.9998 7.71156L12.1522 7.90976L12.1523 7.9097L11.9998 7.71156ZM13.0367 7.71681L12.8822 7.91334L12.8822 7.91337L13.0367 7.71681ZM14.2606 8.67876L14.1061 8.87532L14.1062 8.87533L14.2606 8.67876ZM15.7422 8.88907L15.8344 9.12147L15.8344 9.12145L15.7422 8.88907ZM16.6231 7.74145L16.8721 7.76376V7.76376L16.6231 7.74145ZM16.7577 6.23964L16.5086 6.21732V6.21733L16.7577 6.23964ZM17.4814 5.53598L17.5076 5.7846L17.5077 5.78459L17.4814 5.53598ZM19.7675 5.52772L19.7921 5.27893L19.792 5.27892L19.7675 5.52772ZM20.4967 6.2259L20.2479 6.25031L20.2479 6.25033L20.4967 6.2259ZM20.644 7.72612L20.3952 7.75054L20.3952 7.75056L20.644 7.72612ZM21.5346 8.86703L21.625 8.63395L21.625 8.63394L21.5346 8.86703ZM23.0143 8.6454L23.1704 8.84073L23.1704 8.84072L23.0143 8.6454ZM24.2298 7.67437L24.0738 7.47905L24.0738 7.47905L24.2298 7.67437ZM25.2665 7.66111L25.1157 7.86051L25.1158 7.86054L25.2665 7.66111ZM26.8902 9.18626L26.7004 9.34896L26.7004 9.34896L26.8902 9.18626ZM26.8846 10.1682L26.6966 10.0034L26.6966 10.0034L26.8846 10.1682ZM25.8689 11.3273L25.6809 11.1625L25.6809 11.1626L25.8689 11.3273ZM25.6469 12.7306L25.8755 12.6294L25.8755 12.6294L25.6469 12.7306ZM26.8586 13.5647L26.8386 13.8139L26.8386 13.8139L26.8586 13.5647ZM28.4443 13.6922L28.4644 13.443L28.4643 13.443L28.4443 13.6922ZM29.1874 14.3776L28.9391 14.4068V14.4068L29.1874 14.3776ZM29.196 16.5427L29.4445 16.57L29.4445 16.5699L29.196 16.5427ZM28.4589 17.2333L28.437 16.9843L28.437 16.9843L28.4589 17.2333ZM26.8748 17.3727L26.8529 17.1237L26.8529 17.1237L26.8748 17.3727ZM25.6701 18.2163L25.8995 18.3155L25.8995 18.3155L25.6701 18.2163ZM25.9041 19.6177L26.0908 19.4514L26.0908 19.4514L25.9041 19.6177ZM26.9294 20.7688L26.7427 20.9351L26.7427 20.9351L26.9294 20.7688ZM26.9434 21.7506L26.7522 21.5895L26.7522 21.5895L26.9434 21.7506ZM25.333 23.2883L25.1806 23.0901L25.1806 23.0902L25.333 23.2883ZM24.2961 23.2831L24.4506 23.0866L24.4506 23.0865L24.2961 23.2831ZM23.0722 22.3211L22.9177 22.5177L22.9177 22.5177L23.0722 22.3211ZM21.5906 22.1108L21.6828 22.3432L21.6828 22.3432L21.5906 22.1108ZM20.7097 23.2585L20.4607 23.2361V23.2361L20.7097 23.2585ZM20.5752 24.7603L20.8242 24.7826V24.7826L20.5752 24.7603ZM19.8514 25.4639L19.8252 25.2153L19.8252 25.2153L19.8514 25.4639ZM17.5653 25.4722L17.5408 25.721L17.5408 25.721L17.5653 25.4722ZM16.8361 24.774L17.0849 24.7496V24.7496L16.8361 24.774ZM16.6889 23.2738L16.9377 23.2494L16.9377 23.2493L16.6889 23.2738ZM17.7128 18.8691L17.6513 19.1114L17.6515 19.1114L17.7128 18.8691ZM18.1701 18.619L17.9296 18.5509L17.9295 18.551L18.1701 18.619ZM19.8833 12.5639L19.6427 12.4959L19.6427 12.4959L19.8833 12.5639ZM19.6192 12.1308L19.6807 11.8885L19.6803 11.8884L19.6192 12.1308ZM19.1619 12.3809L18.9213 12.3128L18.9213 12.3128L19.1619 12.3809ZM17.4487 18.4359L17.6893 18.504L17.6893 18.504L17.4487 18.4359ZM16.4279 16.959L16.5998 16.7775L16.5998 16.7775L16.4279 16.959ZM16.9561 16.959L16.7842 16.7774L16.7842 16.7775L16.9561 16.959ZM16.9561 16.4589L16.7842 16.6404L16.7842 16.6404L16.9561 16.4589ZM15.9436 15.5L15.7717 15.3185L15.58 15.5L15.7717 15.6815L15.9436 15.5ZM16.956 14.541L16.7841 14.3595L16.7841 14.3595L16.956 14.541ZM16.956 14.0409L16.7841 14.2224L16.7841 14.2225L16.956 14.0409ZM16.4279 14.0409L16.5998 14.2225L16.5999 14.2224L16.4279 14.0409ZM15.1514 15.2499L15.3232 15.4315L15.3233 15.4314L15.1514 15.2499ZM15.1514 15.75L15.3233 15.5685L15.3233 15.5685L15.1514 15.75ZM20.3761 16.959L20.548 16.7775V16.7775L20.3761 16.959ZM20.9042 16.959L20.7323 16.7775L20.7322 16.7775L20.9042 16.959ZM22.1807 15.75L22.0088 15.5684L22.0088 15.5685L22.1807 15.75ZM22.1807 15.2499L22.0088 15.4314L22.0088 15.4314L22.1807 15.2499ZM20.9042 14.0409L21.0761 13.8594L21.0761 13.8594L20.9042 14.0409ZM20.3761 14.0409L20.548 14.2225L20.5481 14.2224L20.3761 14.0409ZM20.3761 14.541L20.548 14.3595L20.548 14.3595L20.3761 14.541ZM21.3886 15.5L21.5605 15.6815L21.7521 15.5L21.5605 15.3184L21.3886 15.5ZM20.3761 16.4589L20.548 16.6405L20.548 16.6404L20.3761 16.4589ZM4.09433 30.25H15.9452V29.75H4.09433V30.25ZM0.75 27.0695C0.75 28.836 2.263 30.25 4.09433 30.25V29.75C2.51317 29.75 1.25 28.5346 1.25 27.0695H0.75ZM0.75 3.93053V27.0695H1.25V3.93053H0.75ZM4.09433 0.75C2.26306 0.75 0.75 2.16396 0.75 3.93053H1.25C1.25 2.46538 2.51323 1.25 4.09433 1.25V0.75ZM15.9452 0.75H4.09433V1.25H15.9452V0.75ZM19.2896 3.93053C19.2896 2.16396 17.7766 0.75 15.9452 0.75V1.25C17.5264 1.25 18.7896 2.46537 18.7896 3.93053H19.2896ZM19.2896 4.77247V3.93053H18.7896V4.77247H19.2896ZM19.8692 4.57544C19.5969 4.54862 19.3224 4.53102 19.0472 4.52258L19.0319 5.02235C19.296 5.03045 19.5593 5.04733 19.8202 5.07303L19.8692 4.57544ZM21.4892 6.136C21.4067 5.29524 20.7302 4.66022 19.8692 4.57544L19.8202 5.07303C20.4628 5.13632 20.9342 5.60012 20.9916 6.18484L21.4892 6.136ZM21.6364 7.63622L21.4892 6.136L20.9916 6.18484L21.1388 7.68506L21.6364 7.63622ZM21.908 7.97944C21.7467 7.91686 21.6514 7.78821 21.6364 7.63618L21.1388 7.6851C21.1732 8.03444 21.3992 8.31839 21.7272 8.4456L21.908 7.97944ZM22.3767 7.90953C22.244 8.01564 22.0707 8.04251 21.908 7.97943L21.7272 8.44561C22.054 8.57233 22.4154 8.51869 22.6889 8.30014L22.3767 7.90953ZM23.5923 6.93848L22.3768 7.90951L22.6888 8.30016L23.9043 7.32913L23.5923 6.93848ZM25.8833 6.909C25.2018 6.39362 24.2595 6.40548 23.5923 6.93848L23.9043 7.32913C24.3926 6.93908 25.0822 6.93008 25.5817 7.3078L25.8833 6.909ZM27.6599 8.57776C27.1334 7.96361 26.5356 7.40222 25.8833 6.90898L25.5817 7.30782C26.2059 7.77971 26.7773 8.31655 27.2803 8.90319L27.6599 8.57776ZM27.6474 10.7848C28.212 10.1404 28.2174 9.22803 27.6598 8.57775L27.2803 8.9032C27.6757 9.36447 27.6722 9.99778 27.2713 10.4552L27.6474 10.7848ZM26.6317 11.9438L27.6474 10.7848L27.2713 10.4552L26.2557 11.6143L26.6317 11.9438ZM26.5644 12.3562C26.5026 12.2165 26.5244 12.0663 26.6317 11.9438L26.2557 11.6143C26.0234 11.8793 25.9646 12.2363 26.1071 12.5584L26.5644 12.3562ZM26.9418 12.6108C26.7625 12.5964 26.627 12.4978 26.5643 12.3562L26.1071 12.5584C26.2487 12.8786 26.5515 13.0811 26.9018 13.1092L26.9418 12.6108ZM28.5276 12.7382L26.9418 12.6108L26.9018 13.1092L28.4875 13.2366L28.5276 12.7382ZM30.178 14.2702C30.0792 13.4308 29.3905 12.8076 28.5276 12.7382L28.4875 13.2366C29.1318 13.2884 29.6126 13.7443 29.6814 14.3286L30.178 14.2702ZM30.2499 15.4999C30.2499 15.0897 30.2257 14.6761 30.178 14.2702L29.6814 14.3286C29.7269 14.715 29.7499 15.1091 29.7499 15.4999H30.2499ZM30.1875 16.6431C30.2289 16.2652 30.2499 15.8807 30.2499 15.4999H29.7499C29.7499 15.8625 29.7299 16.2288 29.6904 16.5887L30.1875 16.6431ZM28.5501 18.1868C29.4118 18.1108 30.0953 17.4829 30.1875 16.6432L29.6905 16.5887C29.6264 17.1729 29.1495 17.632 28.5062 17.6887L28.5501 18.1868ZM26.9659 18.3262L28.5501 18.1868L28.5062 17.6887L26.9221 17.8281L26.9659 18.3262ZM26.5907 18.5836C26.6522 18.4416 26.7867 18.342 26.9659 18.3262L26.9221 17.8281C26.5719 17.8589 26.2708 18.0639 26.1318 18.3851L26.5907 18.5836ZM26.6617 18.9954C26.5533 18.8737 26.5302 18.7237 26.5908 18.5836L26.1318 18.3851C25.992 18.7085 26.0539 19.0649 26.2883 19.328L26.6617 18.9954ZM27.687 20.1466L26.6617 18.9954L26.2883 19.3279L27.3136 20.4791L27.687 20.1466ZM27.7183 22.3531C28.27 21.6985 28.2568 20.7862 27.687 20.1466L27.3136 20.4791C27.7184 20.9335 27.7271 21.5668 27.336 22.0309L27.7183 22.3531ZM25.9562 24.0357C26.6043 23.5374 27.1971 22.9715 27.7183 22.3531L27.336 22.0309C26.8382 22.6215 26.2714 23.1627 25.6514 23.6394L25.9562 24.0357ZM23.6648 24.024C24.3363 24.552 25.2789 24.5567 25.9562 24.0357L25.6514 23.6394C25.1552 24.0211 24.4654 24.0174 23.9738 23.6309L23.6648 24.024ZM22.4409 23.0621L23.6648 24.024L23.9737 23.6309L22.7498 22.669L22.4409 23.0621ZM21.9713 22.9957C22.1335 22.9314 22.3071 22.9569 22.4408 23.0621L22.7499 22.669C22.4745 22.4525 22.1128 22.4019 21.7872 22.5308L21.9713 22.9957ZM21.703 23.3407C21.7166 23.1887 21.8108 23.0594 21.9715 22.9956L21.787 22.5309C21.4602 22.6607 21.2363 22.9464 21.205 23.2961L21.703 23.3407ZM21.5684 24.8425L21.703 23.3407L21.205 23.2961L21.0704 24.7979L21.5684 24.8425ZM19.9604 26.4156C20.8214 26.3248 21.493 25.6845 21.5684 24.8425L21.0704 24.7979C21.018 25.3833 20.5504 25.8506 19.9079 25.9184L19.9604 26.4156ZM19.0473 26.4776C19.3529 26.4682 19.6586 26.4474 19.9603 26.4156L19.9079 25.9184C19.6187 25.9489 19.3252 25.9688 19.0319 25.9778L19.0473 26.4776ZM19.2896 27.0695V26.2277H18.7896V27.0695H19.2896ZM15.9452 30.25C17.7766 30.25 19.2896 28.836 19.2896 27.0695L18.7896 27.0695C18.7896 28.5346 17.5264 29.75 15.9452 29.75V30.25ZM18.5427 27.0695V26.2277H18.0427V27.0695H18.5427ZM15.9452 29.5427C17.3648 29.5427 18.5427 28.4461 18.5427 27.0695H18.0427C18.0427 28.1447 17.1146 29.0427 15.9452 29.0427V29.5427ZM4.09433 29.5427H15.9452V29.0427H4.09433V29.5427ZM1.49685 27.0695C1.49685 28.4461 2.67483 29.5427 4.09433 29.5427V29.0427C2.925 29.0427 1.99685 28.1447 1.99685 27.0695H1.49685ZM1.49685 3.93053V27.0695H1.99685V3.93053H1.49685ZM4.09433 1.45732C2.67483 1.45732 1.49685 2.55393 1.49685 3.93053H1.99685C1.99685 2.85534 2.925 1.95732 4.09433 1.95732V1.45732ZM15.9452 1.45732H4.09433V1.95732H15.9452V1.45732ZM18.5427 3.93053C18.5427 2.55393 17.3648 1.45732 15.9452 1.45732V1.95732C17.1146 1.95732 18.0427 2.85534 18.0427 3.93053H18.5427ZM18.5427 4.77245V3.93053H18.0427V4.77245H18.5427ZM17.4249 5.08164C17.7143 5.05111 18.0068 5.03132 18.3004 5.02233L18.2851 4.52257C17.9792 4.53193 17.6743 4.55255 17.3725 4.5844L17.4249 5.08164ZM16.2625 6.20211C16.3149 5.61671 16.7825 5.1494 17.4249 5.08164L17.3725 4.5844C16.5116 4.6752 15.8399 5.31554 15.7645 6.15751L16.2625 6.20211ZM16.1279 7.70393L16.2625 6.20212L15.7645 6.1575L15.6299 7.65931L16.1279 7.70393ZM15.5459 8.46911C15.8727 8.33935 16.0966 8.05367 16.1279 7.70392L15.6299 7.65932C15.6163 7.8113 15.5221 7.94058 15.3614 8.00439L15.5459 8.46911ZM14.583 8.33103C14.8584 8.54749 15.2201 8.59832 15.5458 8.46913L15.3615 8.00436C15.1995 8.06862 15.0259 8.04319 14.892 7.93793L14.583 8.33103ZM13.3592 7.36908L14.5831 8.33103L14.892 7.93793L13.6682 6.97598L13.3592 7.36908ZM11.6815 7.36063C12.1777 6.97901 12.8675 6.98262 13.3592 7.36909L13.6682 6.97597C12.9966 6.44811 12.0541 6.44336 11.3767 6.96427L11.6815 7.36063ZM9.99692 8.96915C10.4947 8.37867 11.0614 7.83741 11.6815 7.36064L11.3767 6.96426C10.7285 7.46264 10.1357 8.02869 9.61462 8.6469L9.99692 8.96915ZM10.0193 10.521C9.61447 10.0665 9.60573 9.43319 9.99691 8.96916L9.61463 8.64689C9.06279 9.30148 9.07608 10.2138 9.64591 10.8535L10.0193 10.521ZM11.0446 11.6721L10.0193 10.521L9.64591 10.8535L10.6712 12.0046L11.0446 11.6721ZM11.2011 12.6149C11.3409 12.2916 11.279 11.9351 11.0446 11.672L10.6712 12.0046C10.7796 12.1263 10.8027 12.2764 10.7422 12.4164L11.2011 12.6149ZM10.4108 13.1719C10.761 13.1411 11.0621 12.9362 11.2011 12.6149L10.7422 12.4164C10.6807 12.5585 10.5462 12.658 10.367 12.6738L10.4108 13.1719ZM8.82673 13.3113L10.4108 13.1719L10.367 12.6738L8.78288 12.8133L8.82673 13.3113ZM7.64251 14.4114C7.70661 13.8271 8.18339 13.368 8.82675 13.3113L8.78286 12.8133C7.92106 12.8892 7.23761 13.5171 7.14549 14.3568L7.64251 14.4114ZM7.58301 15.5001C7.58301 15.1374 7.60305 14.771 7.64251 14.4114L7.14549 14.3568C7.10404 14.7346 7.08301 15.1192 7.08301 15.5001H7.58301ZM7.6515 16.6714C7.60603 16.2851 7.58301 15.8909 7.58301 15.5001H7.08301C7.08301 15.9103 7.10716 16.324 7.15493 16.7298L7.6515 16.6714ZM8.84538 17.7634C8.20102 17.7116 7.72021 17.2557 7.6515 16.6714L7.15492 16.7298C7.25364 17.5693 7.94239 18.1924 8.80531 18.2618L8.84538 17.7634ZM10.431 17.8908L8.84536 17.7634L8.80532 18.2618L10.391 18.3891L10.431 17.8908ZM11.2258 18.4416C11.0842 18.1215 10.7814 17.9189 10.431 17.8908L10.391 18.3891C10.5703 18.4036 10.7058 18.5022 10.7685 18.6438L11.2258 18.4416ZM11.0772 19.3857C11.3094 19.1207 11.3682 18.7638 11.2258 18.4416L10.7685 18.6438C10.8303 18.7835 10.8084 18.9338 10.7011 19.0562L11.0772 19.3857ZM10.0615 20.5448L11.0772 19.3857L10.7011 19.0562L9.68546 20.2153L10.0615 20.5448ZM10.0526 22.0969C9.6571 21.6356 9.66061 21.0022 10.0615 20.5448L9.68547 20.2153C9.1208 20.8596 9.11548 21.772 9.67298 22.4223L10.0526 22.0969ZM11.7511 23.6922C11.127 23.2204 10.5556 22.6835 10.0526 22.0969L9.67299 22.4223C10.1995 23.0365 10.7973 23.5979 11.4496 24.091L11.7511 23.6922ZM13.4285 23.6709C12.9403 24.061 12.2507 24.07 11.7511 23.6922L11.4495 24.091C12.1311 24.6065 13.0734 24.5946 13.7406 24.0615L13.4285 23.6709ZM14.644 22.6999L13.4285 23.6709L13.7406 24.0615L14.9561 23.0905L14.644 22.6999ZM15.6056 22.5544C15.2789 22.4277 14.9175 22.4812 14.6439 22.6999L14.9561 23.0905C15.0889 22.9844 15.2621 22.9575 15.4248 23.0206L15.6056 22.5544ZM16.194 23.3149C16.1597 22.9656 15.9336 22.6816 15.6056 22.5544L15.4248 23.0206C15.5861 23.0832 15.6815 23.2118 15.6964 23.3638L16.194 23.3149ZM16.3413 24.8152L16.194 23.315L15.6964 23.3638L15.8437 24.864L16.3413 24.8152ZM17.5126 25.927C16.87 25.8637 16.3987 25.3999 16.3413 24.8152L15.8437 24.864C15.9262 25.7048 16.6026 26.3398 17.4636 26.4246L17.5126 25.927ZM18.3005 25.9778C18.0369 25.9696 17.7731 25.9526 17.5126 25.927L17.4637 26.4246C17.7354 26.4513 18.0103 26.469 18.285 26.4775L18.3005 25.9778ZM8.94862 28.0641H11.5277V27.5641H8.94862V28.0641ZM8.3252 27.4604C8.3252 27.8064 8.61734 28.0641 8.94862 28.0641V27.5641C8.86751 27.5641 8.8252 27.505 8.8252 27.4604H8.3252ZM8.94862 26.8568C8.61734 26.8568 8.3252 27.1144 8.3252 27.4604H8.8252C8.8252 27.4159 8.86751 27.3568 8.94862 27.3568V26.8568ZM11.5276 26.8568H8.94862V27.3568H11.5276V26.8568ZM12.1511 27.4604C12.1511 27.1144 11.8589 26.8568 11.5276 26.8568V27.3568C11.6087 27.3568 11.6511 27.4159 11.6511 27.4604H12.1511ZM11.5277 28.0641C11.859 28.0641 12.1511 27.8064 12.1511 27.4604H11.6511C11.6511 27.505 11.6087 27.5641 11.5277 27.5641V28.0641ZM15.2507 22.2805C15.4048 22.2805 15.5599 22.3086 15.7078 22.3659L15.8887 21.8998C15.682 21.8196 15.4655 21.7805 15.2507 21.7805V22.2805ZM14.4744 22.5499C14.6955 22.3733 14.9705 22.2805 15.2507 22.2805V21.7805C14.8608 21.7805 14.4749 21.9096 14.1624 22.1591L14.4744 22.5499ZM13.2589 23.5209L14.4744 22.5498L14.1623 22.1592L12.9468 23.1302L13.2589 23.5209ZM11.9154 23.5382C12.315 23.8404 12.8677 23.8335 13.2589 23.5208L12.9468 23.1302C12.7345 23.2999 12.4345 23.3039 12.217 23.1394L11.9154 23.5382ZM10.2526 21.9763C10.7455 22.5513 11.3049 23.0767 11.9154 23.5382L12.2169 23.1394C11.6346 22.6992 11.1015 22.1984 10.6323 21.6509L10.2526 21.9763ZM10.2601 20.6669C9.92589 21.0482 9.92278 21.5915 10.2527 21.9763L10.6323 21.6509C10.4644 21.4551 10.4657 21.1908 10.6361 20.9965L10.2601 20.6669ZM11.2758 19.5078L10.26 20.6669L10.6361 20.9965L11.6518 19.8374L11.2758 19.5078ZM11.4573 18.3705C11.6255 18.7508 11.5585 19.1851 11.2758 19.5078L11.6518 19.8373C12.06 19.3715 12.1633 18.7304 11.9145 18.1682L11.4573 18.3705ZM10.4541 17.6843C10.9073 17.7207 11.2882 17.9882 11.4573 18.3705L11.9145 18.1682C11.6668 17.6081 11.119 17.2361 10.4941 17.1859L10.4541 17.6843ZM8.86837 17.5569L10.4541 17.6843L10.4941 17.1859L8.90841 17.0585L8.86837 17.5569ZM7.89711 16.6515C7.95587 17.151 8.36534 17.5165 8.86835 17.5569L8.90842 17.0585C8.624 17.0357 8.42243 16.8374 8.39368 16.5931L7.89711 16.6515ZM7.8298 15.5C7.8298 15.8843 7.85246 16.2716 7.8971 16.6515L8.39369 16.5931C8.35132 16.2327 8.3298 15.8648 8.3298 15.5H7.8298ZM7.8883 14.4299C7.84953 14.7836 7.8298 15.1435 7.8298 15.5H8.3298C8.3298 15.1618 8.34853 14.82 8.38532 14.4844L7.8883 14.4299ZM8.85204 13.5176C8.34958 13.5618 7.94314 13.9301 7.8883 14.4299L8.38531 14.4845C8.41213 14.2401 8.61188 14.0406 8.89586 14.0156L8.85204 13.5176ZM10.4361 13.3781L8.85203 13.5176L8.89587 14.0156L10.4799 13.8762L10.4361 13.3781ZM11.4333 12.6844C11.2675 13.0679 10.8889 13.3382 10.4361 13.3781L10.48 13.8762C11.1043 13.8212 11.6491 13.445 11.8922 12.8829L11.4333 12.6844ZM11.242 11.5484C11.5277 11.8692 11.5982 12.303 11.4333 12.6845L11.8922 12.8829C12.1362 12.3187 12.0274 11.6785 11.6154 11.2159L11.242 11.5484ZM10.2168 10.3974L11.2421 11.5485L11.6154 11.2159L10.5901 10.0648L10.2168 10.3974ZM10.1983 9.08812C9.87157 9.47564 9.87962 10.019 10.2168 10.3974L10.5901 10.0648C10.418 9.87166 10.4145 9.60738 10.5806 9.41042L10.1983 9.08812ZM11.8475 7.51337C11.2408 7.97974 10.686 8.50954 10.1983 9.08815L10.5806 9.41039C11.0449 8.85953 11.5737 8.35453 12.1522 7.90976L11.8475 7.51337ZM13.1912 7.52029C12.7974 7.21059 12.2446 7.20784 11.8474 7.51343L12.1523 7.9097C12.3683 7.74351 12.6683 7.74512 12.8822 7.91334L13.1912 7.52029ZM14.4151 8.48221L13.1912 7.52026L12.8822 7.91337L14.1061 8.87532L14.4151 8.48221ZM15.6501 8.65667C15.2339 8.82168 14.7604 8.75351 14.4151 8.48219L14.1062 8.87533C14.5934 9.25816 15.2551 9.35114 15.8344 9.12147L15.6501 8.65667ZM16.3741 7.71913C16.3372 8.13041 16.0648 8.49214 15.6501 8.65669L15.8344 9.12145C16.4148 8.8912 16.8175 8.37338 16.8721 7.76376L16.3741 7.71913ZM16.5086 6.21733L16.3741 7.71914L16.8721 7.76376L17.0067 6.26195L16.5086 6.21733ZM17.4552 5.28735C16.9531 5.34024 16.5536 5.71615 16.5086 6.21732L17.0067 6.26195C17.0286 6.01726 17.2241 5.81446 17.5076 5.7846L17.4552 5.28735ZM19.792 5.27892C19.0189 5.20288 18.2257 5.20595 17.4551 5.28736L17.5077 5.78459C18.2445 5.70674 19.0038 5.7038 19.743 5.77652L19.792 5.27892ZM20.7455 6.2015C20.6964 5.70106 20.294 5.32842 19.7921 5.27893L19.743 5.77652C20.0266 5.80448 20.2239 6.00595 20.2479 6.25031L20.7455 6.2015ZM20.8928 7.7017L20.7455 6.20148L20.2479 6.25033L20.3952 7.75054L20.8928 7.7017ZM21.625 8.63394C21.2087 8.47249 20.9331 8.11274 20.8928 7.70169L20.3952 7.75056C20.455 8.35969 20.8619 8.8743 21.4442 9.10011L21.625 8.63394ZM22.8583 8.45007C22.5153 8.72403 22.0425 8.79589 21.625 8.63395L21.4442 9.10011C22.0253 9.32553 22.6863 9.2274 23.1704 8.84073L22.8583 8.45007ZM24.0738 7.47905L22.8583 8.45007L23.1704 8.84072L24.3859 7.8697L24.0738 7.47905ZM25.4173 7.46171C25.0177 7.15952 24.4651 7.16643 24.0738 7.47905L24.3859 7.8697C24.5983 7.70004 24.8982 7.69599 25.1157 7.86051L25.4173 7.46171ZM27.0801 9.02356C26.5873 8.44866 26.0279 7.92328 25.4173 7.46168L25.1158 7.86054C25.6981 8.30077 26.2313 8.80159 26.7004 9.34896L27.0801 9.02356ZM27.0727 10.333C27.4068 9.95169 27.4099 9.40838 27.0801 9.02356L26.7004 9.34896C26.8683 9.54485 26.867 9.80906 26.6966 10.0034L27.0727 10.333ZM26.057 11.4921L27.0727 10.333L26.6966 10.0034L25.6809 11.1625L26.057 11.4921ZM25.8755 12.6294C25.7072 12.2491 25.7742 11.8148 26.057 11.4921L25.6809 11.1626C25.2727 11.6284 25.1695 12.2695 25.4182 12.8317L25.8755 12.6294ZM26.8787 13.3155C26.4255 13.2791 26.0446 13.0117 25.8755 12.6294L25.4182 12.8317C25.666 13.3919 26.2138 13.7637 26.8386 13.8139L26.8787 13.3155ZM28.4643 13.443L26.8787 13.3155L26.8386 13.8139L28.4243 13.9414L28.4643 13.443ZM29.4357 14.3484C29.3769 13.8489 28.9674 13.4834 28.4644 13.443L28.4243 13.9414C28.7088 13.9642 28.9103 14.1625 28.9391 14.4068L29.4357 14.3484ZM29.503 15.4999C29.503 15.1157 29.4804 14.7284 29.4357 14.3484L28.9391 14.4068C28.9815 14.7673 29.003 15.1351 29.003 15.4999H29.503ZM29.4445 16.5699C29.4833 16.2162 29.503 15.8563 29.503 15.4999H29.003C29.003 15.8381 28.9843 16.1798 28.9475 16.5155L29.4445 16.5699ZM28.4808 17.4823C28.9832 17.4381 29.3897 17.0697 29.4445 16.57L28.9475 16.5154C28.9207 16.7597 28.7209 16.9593 28.437 16.9843L28.4808 17.4823ZM26.8967 17.6218L28.4808 17.4823L28.437 16.9843L26.8529 17.1237L26.8967 17.6218ZM25.8995 18.3155C26.0654 17.932 26.4439 17.6617 26.8968 17.6218L26.8529 17.1237C26.2285 17.1787 25.6837 17.5549 25.4406 18.1171L25.8995 18.3155ZM26.0908 19.4514C25.8052 19.1308 25.7346 18.6969 25.8995 18.3155L25.4406 18.1171C25.1967 18.6812 25.3054 19.3214 25.7174 19.7839L26.0908 19.4514ZM27.1161 20.6025L26.0908 19.4514L25.7174 19.7839L26.7427 20.9351L27.1161 20.6025ZM27.1346 21.9118C27.4612 21.5242 27.4531 20.9809 27.1161 20.6025L26.7427 20.9351C26.9148 21.1282 26.9183 21.3925 26.7522 21.5895L27.1346 21.9118ZM25.4854 23.4865C26.0919 23.0202 26.6468 22.4905 27.1346 21.9117L26.7522 21.5895C26.2879 22.1405 25.7591 22.6454 25.1806 23.0901L25.4854 23.4865ZM24.1416 23.4796C24.5354 23.7893 25.0883 23.792 25.4854 23.4865L25.1806 23.0902C24.9646 23.2563 24.6645 23.2547 24.4506 23.0866L24.1416 23.4796ZM22.9177 22.5177L24.1416 23.4796L24.4506 23.0865L23.2267 22.1246L22.9177 22.5177ZM21.6828 22.3432C22.0989 22.1781 22.5724 22.2463 22.9177 22.5177L23.2267 22.1246C22.7395 21.7416 22.0777 21.6486 21.4984 21.8785L21.6828 22.3432ZM20.9587 23.2808C20.9956 22.8695 21.268 22.5078 21.6828 22.3432L21.4984 21.8784C20.918 22.1087 20.5154 22.6265 20.4607 23.2361L20.9587 23.2808ZM20.8242 24.7826L20.9587 23.2808L20.4607 23.2361L20.3262 24.7379L20.8242 24.7826ZM19.8776 25.7125C20.3797 25.6597 20.7793 25.2838 20.8242 24.7826L20.3262 24.7379C20.3043 24.9826 20.1087 25.1854 19.8252 25.2153L19.8776 25.7125ZM17.5408 25.721C18.3139 25.797 19.1072 25.7938 19.8777 25.7125L19.8252 25.2153C19.0883 25.293 18.329 25.2961 17.5898 25.2234L17.5408 25.721ZM16.5873 24.7984C16.6364 25.2988 17.0388 25.6715 17.5408 25.721L17.5898 25.2234C17.3062 25.1954 17.1089 24.994 17.0849 24.7496L16.5873 24.7984ZM16.4401 23.2982L16.5873 24.7984L17.0849 24.7496L16.9377 23.2494L16.4401 23.2982ZM15.7079 22.366C16.1242 22.5274 16.3997 22.8872 16.4401 23.2982L16.9377 23.2493C16.8779 22.6402 16.4709 22.1256 15.8887 21.8998L15.7079 22.366ZM13.1221 15.5C13.1221 18.415 15.6216 20.7631 18.6654 20.7631V20.2631C15.8718 20.2631 13.6221 18.1135 13.6221 15.5H13.1221ZM18.6654 10.2369C15.6216 10.2369 13.1221 12.585 13.1221 15.5H13.6221C13.6221 12.8864 15.8718 10.7369 18.6654 10.7369V10.2369ZM24.2088 15.5C24.2088 12.585 21.7092 10.2369 18.6654 10.2369V10.7369C21.4591 10.7369 23.7088 12.8864 23.7088 15.5H24.2088ZM18.6654 20.7631C21.7092 20.7631 24.2088 18.415 24.2088 15.5H23.7088C23.7088 18.1135 21.4591 20.2631 18.6654 20.2631V20.7631ZM14.3689 15.5C14.3689 13.2765 16.2836 11.4442 18.6654 11.4442V10.9442C16.0334 10.9442 13.8689 12.975 13.8689 15.5H14.3689ZM18.6654 19.5558C16.2836 19.5558 14.3689 17.7235 14.3689 15.5H13.8689C13.8689 18.0249 16.0334 20.0558 18.6654 20.0558V19.5558ZM22.9619 15.5C22.9619 17.7235 21.0473 19.5558 18.6654 19.5558V20.0558C21.2975 20.0558 23.4619 18.0249 23.4619 15.5H22.9619ZM18.6654 11.4442C21.0473 11.4442 22.9619 13.2765 22.9619 15.5H23.4619C23.4619 12.9751 21.2975 10.9442 18.6654 10.9442V11.4442ZM17.8097 18.6312C17.798 18.6312 17.7861 18.6297 17.7742 18.6267L17.6515 19.1114C17.7043 19.1248 17.7574 19.1312 17.8097 19.1312V18.6312ZM17.9295 18.551C17.9182 18.5911 17.8738 18.6312 17.8097 18.6312V19.1312C18.0754 19.1312 18.3328 18.963 18.4107 18.6869L17.9295 18.551ZM19.6427 12.4959L17.9296 18.5509L18.4107 18.687L20.1238 12.632L19.6427 12.4959ZM19.5577 12.3731C19.6319 12.3919 19.6547 12.4536 19.6427 12.4959L20.1238 12.632C20.2187 12.2969 20.005 11.9708 19.6807 11.8885L19.5577 12.3731ZM19.4024 12.4489C19.416 12.4011 19.4792 12.3533 19.5581 12.3732L19.6803 11.8884C19.3611 11.8079 19.0146 11.9833 18.9213 12.3128L19.4024 12.4489ZM17.6893 18.504L19.4024 12.4489L18.9213 12.3128L17.2082 18.3679L17.6893 18.504ZM17.7743 18.6268C17.7001 18.6079 17.6773 18.5462 17.6893 18.504L17.2082 18.3678C17.1133 18.703 17.3271 19.0291 17.6513 19.1114L17.7743 18.6268ZM16.692 16.8126C16.6559 16.8126 16.6232 16.7996 16.5998 16.7775L16.256 17.1405C16.3785 17.2565 16.5369 17.3126 16.692 17.3126V16.8126ZM16.7842 16.7775C16.7608 16.7996 16.7281 16.8126 16.692 16.8126V17.3126C16.8471 17.3126 17.0054 17.2565 17.128 17.1405L16.7842 16.7775ZM16.7842 16.6404C16.8259 16.6799 16.8258 16.738 16.7842 16.7774L17.1279 17.1405C17.378 16.9038 17.3779 16.5141 17.128 16.2774L16.7842 16.6404ZM15.7717 15.6815L16.7842 16.6404L17.128 16.2774L16.1155 15.3184L15.7717 15.6815ZM16.7841 14.3595L15.7717 15.3185L16.1155 15.6815L17.1279 14.7225L16.7841 14.3595ZM16.7841 14.2225C16.8258 14.262 16.8258 14.3201 16.7841 14.3595L17.1279 14.7226C17.3779 14.4859 17.3778 14.0961 17.1279 13.8594L16.7841 14.2225ZM16.5999 14.2224C16.6493 14.1756 16.7347 14.1756 16.7841 14.2224L17.1279 13.8595C16.8857 13.6299 16.4982 13.6299 16.256 13.8595L16.5999 14.2224ZM15.3233 15.4314L16.5998 14.2225L16.256 13.8594L14.9795 15.0684L15.3233 15.4314ZM15.3233 15.5685C15.2815 15.529 15.2816 15.4709 15.3232 15.4315L14.9795 15.0684C14.7295 15.3051 14.7295 15.6948 14.9795 15.9315L15.3233 15.5685ZM16.5998 16.7775L15.3233 15.5685L14.9795 15.9315L16.256 17.1405L16.5998 16.7775ZM20.6402 16.8126C20.604 16.8126 20.5713 16.7996 20.548 16.7775L20.2042 17.1405C20.3267 17.2565 20.4851 17.3126 20.6402 17.3126V16.8126ZM20.7322 16.7775C20.7089 16.7996 20.6763 16.8126 20.6402 16.8126V17.3126C20.7952 17.3126 20.9536 17.2565 21.0762 17.1404L20.7322 16.7775ZM22.0088 15.5685L20.7323 16.7775L21.0761 17.1405L22.3526 15.9315L22.0088 15.5685ZM22.0088 15.4314C22.0505 15.4709 22.0504 15.529 22.0088 15.5684L22.3525 15.9315C22.6026 15.6949 22.6025 15.3051 22.3526 15.0684L22.0088 15.4314ZM20.7323 14.2225L22.0088 15.4314L22.3526 15.0684L21.0761 13.8594L20.7323 14.2225ZM20.5481 14.2224C20.5974 14.1757 20.6828 14.1756 20.7323 14.2225L21.0761 13.8594C20.8339 13.6301 20.4465 13.6298 20.2041 13.8595L20.5481 14.2224ZM20.548 14.3595C20.5063 14.32 20.5063 14.2619 20.548 14.2225L20.2042 13.8594C19.9542 14.0961 19.9543 14.4858 20.2042 14.7225L20.548 14.3595ZM21.5605 15.3184L20.548 14.3595L20.2042 14.7225L21.2167 15.6815L21.5605 15.3184ZM20.548 16.6404L21.5605 15.6815L21.2167 15.3184L20.2042 16.2774L20.548 16.6404ZM20.548 16.7775C20.5063 16.7379 20.5063 16.6799 20.548 16.6405L20.2042 16.2774C19.9542 16.514 19.9543 16.9038 20.2042 17.1405L20.548 16.7775Z" fill="white"/>
</svg>
