<svg width="29" height="29" viewBox="0 0 29 29" fill="none" xmlns="http://www.w3.org/2000/svg">
<path d="M28.9471 9.79758L25.8386 3.74596V0.443292C25.8386 0.325724 25.7973 0.212971 25.7237 0.129837C25.6502 0.0467038 25.5504 0 25.4464 0H11.3809C11.2769 0 11.1771 0.0467038 11.1036 0.129837C11.03 0.212971 10.9887 0.325724 10.9887 0.443292V3.78843L9.17719 7.31503H1.86113C1.75712 7.31503 1.65736 7.36173 1.58381 7.44486C1.51026 7.528 1.46894 7.64075 1.46894 7.75832V9.12732C1.06405 9.18362 0.691303 9.40517 0.420791 9.7503C0.150278 10.0954 0.000635313 10.5404 0 11.0015V12.7155C0 12.8331 0.0413203 12.9459 0.114871 13.029C0.188422 13.1121 0.288178 13.1588 0.392194 13.1588H0.714879L2.06272 28.5986C2.07227 28.7081 2.11752 28.8096 2.18965 28.8835C2.26179 28.9574 2.35566 28.9983 2.45301 28.9983H28.586C28.7983 29.0207 29.0315 28.8213 28.9783 28.4113L29 10.0207C29.0001 9.94236 28.9818 9.86536 28.9471 9.79758ZM22.8694 9.80769L25.4573 4.76942L28.0453 9.80769H22.8694ZM22.6989 10.6943H25.0526V24.8928L22.699 27.4999L22.6989 10.6943ZM25.837 10.6943H28.2148L28.1951 27.4771L25.8371 24.8652L25.837 10.6943ZM11.7731 0.886584H25.0542V3.46452H11.7731V0.886584ZM11.6067 4.3511H24.7652L21.9676 9.79758C21.9329 9.86517 21.9146 9.94194 21.9146 10.0201V28.1117H10.5636L11.0527 22.509C11.6868 23.481 12.5667 24.2129 13.5764 24.6082C14.586 25.0035 15.6779 25.0436 16.7081 24.7232C17.7383 24.4028 18.6584 23.7369 19.347 22.8135C20.0356 21.89 20.4604 20.7523 20.5653 19.5505C20.6702 18.3486 20.4503 17.139 19.9347 16.0813C19.4191 15.0235 18.6319 14.1673 17.6769 13.6255C16.722 13.0837 15.6442 12.8818 14.5857 13.0464C13.5272 13.211 12.5377 13.7344 11.7477 14.5476L11.8689 13.1587H12.1916C12.2956 13.1587 12.3954 13.112 12.4689 13.0289C12.5425 12.9458 12.5838 12.833 12.5838 12.7154V11.0014C12.5832 10.5403 12.4335 10.0953 12.1629 9.75016C11.8924 9.40502 11.5196 9.18348 11.1147 9.1272V7.75832C11.1147 7.64075 11.0734 7.528 10.9999 7.44486C10.9263 7.36173 10.8265 7.31503 10.7225 7.31503H10.0842L11.6067 4.3511ZM2.80841 28.1117L2.32911 22.6213H3.95191C4.57433 23.3189 5.41533 23.7102 6.29183 23.7102C7.16833 23.7102 8.00933 23.3189 8.63175 22.6213H10.2547L9.77535 28.1117H2.80841ZM1.67166 9.9986H10.9121C11.1473 9.99891 11.3729 10.1047 11.5392 10.2927C11.7055 10.4807 11.7991 10.7356 11.7994 11.0015V12.2723H0.784375V11.0015C0.784652 10.7356 0.878223 10.4807 1.04456 10.2927C1.2109 10.1047 1.43642 9.99891 1.67166 9.9986ZM6.29182 22.8236C5.78832 22.8236 5.29614 22.6548 4.87751 22.3386C4.45889 22.0224 4.13261 21.573 3.93994 21.0473C3.74728 20.5215 3.69688 19.9429 3.79511 19.3848C3.89335 18.8266 4.13581 18.3139 4.49184 17.9115C4.84787 17.5091 5.30147 17.2351 5.79529 17.1241C6.28911 17.013 6.80096 17.07 7.26613 17.2878C7.7313 17.5056 8.12889 17.8744 8.40862 18.3475C8.68835 18.8207 8.83767 19.377 8.83768 19.9461C8.83694 20.709 8.56847 21.4404 8.09119 21.9799C7.61391 22.5194 6.96679 22.8228 6.29182 22.8236ZM9.62207 19.9461C9.62258 19.3302 9.48852 18.7237 9.23178 18.1805H10.6424L10.3319 21.7348H9.22134C9.48494 21.1857 9.62271 20.5708 9.62207 19.9461ZM11.6165 16.0507C12.1867 15.1295 13.0109 14.4478 13.9603 14.1123C14.9097 13.7769 15.9307 13.8066 16.8636 14.1967C17.7965 14.5869 18.5887 15.3155 19.1162 16.2686C19.6438 17.2218 19.877 18.3457 19.7793 19.4646C19.6816 20.5834 19.2586 21.6342 18.5764 22.4524C17.8942 23.2706 16.9913 23.8102 16.009 23.9868C15.0266 24.1633 14.0202 23.9669 13.1471 23.4282C12.274 22.8895 11.5835 22.0389 11.1836 21.0094L11.6165 16.0507ZM1.94148 18.1805H3.3519C3.09391 18.7278 2.95984 19.3389 2.96167 19.9591C2.96349 20.5793 3.10115 21.1893 3.36236 21.7347H2.25167L1.94148 18.1805ZM10.3303 8.20161V9.11201H2.25333V8.20161H10.3303ZM11.0807 13.1588L10.7197 17.2939H8.6523C8.34326 16.9416 7.97556 16.662 7.57042 16.4712C7.16529 16.2804 6.73073 16.1822 6.29183 16.1822C5.85293 16.1822 5.41837 16.2804 5.01324 16.4712C4.6081 16.662 4.2404 16.9416 3.93136 17.2939H1.86403L1.50303 13.1588H11.0807ZM23.2674 28.1117L25.4647 25.696L27.6473 28.1117H23.2674Z" fill="white"/>
</svg>
