<svg width="29" height="29" viewBox="0 0 29 29" fill="none" xmlns="http://www.w3.org/2000/svg">
<path d="M3.68695 8.37595H12.2731C12.4104 8.37595 12.5421 8.43449 12.6392 8.5387C12.7364 8.6429 12.7909 8.78422 12.7909 8.93159C12.7909 9.07895 12.7364 9.22028 12.6392 9.32448C12.5421 9.42868 12.4104 9.48722 12.2731 9.48722H3.68695C3.5514 9.48431 3.42232 9.42449 3.32741 9.32061C3.23251 9.21672 3.17935 9.07705 3.17935 8.93159C3.17935 8.78612 3.23251 8.64645 3.32741 8.54257C3.42232 8.43868 3.5514 8.37886 3.68695 8.37595ZM27.7215 12.1221V26.3236C27.7208 27.0332 27.4578 27.7135 26.9901 28.2153C26.5225 28.717 25.8884 28.9992 25.2271 29H2.49446C1.83311 28.9992 1.19904 28.717 0.731396 28.2153C0.263748 27.7135 0.00071143 27.0332 0 26.3236V8.211C0.000701731 7.50138 0.263727 6.82103 0.73137 6.31922C1.19901 5.81742 1.83308 5.53513 2.49446 5.53431L14.8342 5.5344C17.3364 -2.94452 28.7962 -1.26235 29 7.72699C29.0009 9.29754 28.5549 10.8309 27.7215 12.1221ZM15.5711 7.72694C15.9102 16.5443 27.6239 16.5469 27.9643 7.72699C27.9643 5.96368 27.3114 4.27258 26.1494 3.02572C24.9873 1.77886 23.4112 1.07838 21.7677 1.07837C20.1243 1.07836 18.5481 1.77883 17.3861 3.02568C16.224 4.27253 15.5711 5.96362 15.5711 7.72694ZM1.03571 8.211V11.2184H14.6762C14.8774 11.2174 15.0768 11.1776 15.2649 11.1008C14.634 9.72021 14.4071 8.1671 14.6141 6.64557H2.49446C2.10767 6.64606 1.73686 6.81116 1.46338 7.10463C1.18991 7.39811 1.0361 7.796 1.03571 8.211ZM26.6858 26.3236V13.3999C23.5941 16.6541 18.0933 15.9451 15.7792 12.0724C15.4325 12.2406 15.0567 12.3283 14.6762 12.3297H1.03571V26.3236C1.03615 26.7385 1.18998 27.1364 1.46345 27.4298C1.73693 27.7232 2.10771 27.8883 2.49446 27.8887H25.2271C25.6138 27.8883 25.9846 27.7232 26.2581 27.4298C26.5316 27.1364 26.6854 26.7385 26.6858 26.3236ZM17.017 8.13043L18.7895 9.9308C18.8856 10.0287 19.0131 10.0832 19.1455 10.083C19.2484 10.0812 19.3484 10.0468 19.4331 9.98409C19.5178 9.9214 19.5832 9.83324 19.6213 9.73071C19.6594 9.62818 19.6683 9.51585 19.647 9.40788C19.6257 9.29991 19.5751 9.20111 19.5015 9.12393L18.1263 7.72699L19.5016 6.32978C19.5509 6.27961 19.5906 6.2195 19.6184 6.15288C19.6461 6.08626 19.6613 6.01444 19.6632 5.9415C19.665 5.86857 19.6535 5.79596 19.6292 5.72782C19.6049 5.65967 19.5683 5.59733 19.5215 5.54435C19.4748 5.49137 19.4188 5.44879 19.3567 5.41904C19.2946 5.38929 19.2276 5.37296 19.1597 5.37097C19.0917 5.36898 19.024 5.38137 18.9605 5.40744C18.897 5.43351 18.8389 5.47275 18.7895 5.52292L17.017 7.32357C16.9662 7.37572 16.9259 7.43835 16.8983 7.50768C16.8707 7.57701 16.8565 7.65162 16.8565 7.727C16.8565 7.80238 16.8707 7.87698 16.8983 7.94631C16.9259 8.01564 16.9662 8.07827 17.017 8.13043ZM24.0139 9.90937C24.0606 9.96236 24.1166 10.0049 24.1787 10.0347C24.2408 10.0644 24.3078 10.0808 24.3757 10.0828C24.4437 10.0848 24.5114 10.0724 24.5749 10.0463C24.6384 10.0202 24.6965 9.98097 24.7459 9.9308L26.5184 8.13043C26.5695 8.07851 26.6103 8.01597 26.6381 7.9466C26.6659 7.87724 26.6803 7.80251 26.6803 7.727C26.6803 7.65148 26.6659 7.57676 26.6381 7.50739C26.6103 7.43803 26.5695 7.37548 26.5184 7.32357L24.7459 5.52292C24.6462 5.42161 24.513 5.36695 24.3757 5.37097C24.2384 5.37499 24.1083 5.43735 24.0138 5.54435C23.9194 5.65135 23.8685 5.79421 23.8722 5.9415C23.876 6.0888 23.9341 6.22847 24.0338 6.32978L25.4091 7.72699L24.0338 9.12394C23.9844 9.1741 23.9448 9.23421 23.917 9.30083C23.8893 9.36745 23.8741 9.43928 23.8722 9.51222C23.8704 9.58515 23.8819 9.65776 23.9062 9.72591C23.9305 9.79405 23.9671 9.85639 24.0139 9.90937ZM20.7198 11.337C20.851 11.3807 20.9929 11.3667 21.1144 11.2983C21.236 11.2298 21.3273 11.1124 21.3682 10.9718L23.1559 4.81237C23.1968 4.6717 23.1839 4.51938 23.12 4.38893C23.0562 4.25847 22.9467 4.16056 22.8156 4.11674C22.6845 4.07292 22.5425 4.08678 22.4209 4.15526C22.2993 4.22375 22.2081 4.34125 22.1672 4.48192L20.3795 10.6414C20.3592 10.711 20.352 10.7843 20.3581 10.8569C20.3643 10.9296 20.3837 11.0003 20.4153 11.0649C20.4469 11.1295 20.4901 11.1867 20.5423 11.2334C20.5946 11.2801 20.6549 11.3153 20.7198 11.337Z" fill="white"/>
</svg>
