<svg width="65" height="65" viewBox="0 0 65 65" fill="none" xmlns="http://www.w3.org/2000/svg">
<path d="M31.6327 0.77045C31.7547 -0.256817 33.2453 -0.256817 33.3673 0.77045L34.3899 9.38829C35.7102 20.5162 44.4838 29.2898 55.6116 30.6102L64.2295 31.6327C65.2568 31.7547 65.2568 33.2453 64.2295 33.3673L55.6116 34.3899C44.4838 35.7102 35.7102 44.4838 34.3899 55.6116L33.3673 64.2295C33.2453 65.2568 31.7547 65.2568 31.6327 64.2295L30.6102 55.6116C29.2898 44.4838 20.5162 35.7102 9.38829 34.3899L0.77045 33.3673C-0.256817 33.2453 -0.256817 31.7547 0.77045 31.6327L9.38829 30.6102C20.5162 29.2898 29.2898 20.5162 30.6102 9.38829L31.6327 0.77045Z" fill="#F94A29"/>
</svg>
